<svg aria-hidden="true" style="position: absolute; width: 0; height: 0; overflow: hidden;" version="1.1" xmlns="http://www.w3.org/2000/svg" xmlns:xlink="http://www.w3.org/1999/xlink">
<defs>
<symbol id="icon-arrow_forward" viewBox="0 0 44 44">
<title>arrow_forward</title>
<path d="M16 5.333l-1.88 1.88 7.44 7.453h-16.227v2.667h16.227l-7.44 7.453 1.88 1.88 10.667-10.667z"></path>
</symbol>
<symbol id="icon-expand_more" viewBox="0 0 32 32">
<title>expand_more</title>
<path d="M22.12 11.453l-6.12 6.107-6.12-6.107-1.88 1.88 8 8 8-8z"></path>
</symbol>
<symbol id="icon-favorite" viewBox="0 0 32 32">
<title>favorite</title>
<path d="M16 28.467l-1.933-1.76c-6.867-6.227-11.4-10.333-11.4-15.373 0-4.107 3.227-7.333 7.333-7.333 2.32 0 4.547 1.080 6 2.787 1.453-1.707 3.68-2.787 6-2.787 4.107 0 7.333 3.227 7.333 7.333 0 5.040-4.533 9.147-11.4 15.387l-1.933 1.747z"></path>
</symbol>
<symbol id="icon-favorite_border" viewBox="0 0 32 32">
<title>favorite_border</title>
<path d="M22 4c-2.32 0-4.547 1.080-6 2.787-1.453-1.707-3.68-2.787-6-2.787-4.107 0-7.333 3.227-7.333 7.333 0 5.040 4.533 9.147 11.4 15.387l1.933 1.747 1.933-1.76c6.867-6.227 11.4-10.333 11.4-15.373 0-4.107-3.227-7.333-7.333-7.333zM16.133 24.733l-0.133 0.133-0.133-0.133c-6.347-5.747-10.533-9.547-10.533-13.4 0-2.667 2-4.667 4.667-4.667 2.053 0 4.053 1.32 4.76 3.147h2.493c0.693-1.827 2.693-3.147 4.747-3.147 2.667 0 4.667 2 4.667 4.667 0 3.853-4.187 7.653-10.533 13.4z"></path>
</symbol>
<symbol id="icon-insert_emoticon" viewBox="0 0 32 32">
<title>insert_emoticon</title>
<path d="M15.987 2.667c-7.36 0-13.32 5.973-13.32 13.333s5.96 13.333 13.32 13.333c7.373 0 13.347-5.973 13.347-13.333s-5.973-13.333-13.347-13.333zM16 26.667c-5.893 0-10.667-4.773-10.667-10.667s4.773-10.667 10.667-10.667 10.667 4.773 10.667 10.667-4.773 10.667-10.667 10.667zM20.667 14.667c1.107 0 2-0.893 2-2s-0.893-2-2-2-2 0.893-2 2 0.893 2 2 2zM11.333 14.667c1.107 0 2-0.893 2-2s-0.893-2-2-2-2 0.893-2 2 0.893 2 2 2zM16 23.333c3.107 0 5.747-1.947 6.813-4.667h-13.627c1.067 2.72 3.707 4.667 6.813 4.667z"></path>
</symbol>
<symbol id="icon-location_city" viewBox="0 0 32 32">
<title>location_city</title>
<path d="M20 14.667v-8l-4-4-4 4v2.667h-8v18.667h24v-13.333h-8zM9.333 25.333h-2.667v-2.667h2.667v2.667zM9.333 20h-2.667v-2.667h2.667v2.667zM9.333 14.667h-2.667v-2.667h2.667v2.667zM17.333 25.333h-2.667v-2.667h2.667v2.667zM17.333 20h-2.667v-2.667h2.667v2.667zM17.333 14.667h-2.667v-2.667h2.667v2.667zM17.333 9.333h-2.667v-2.667h2.667v2.667zM25.333 25.333h-2.667v-2.667h2.667v2.667zM25.333 20h-2.667v-2.667h2.667v2.667z"></path>
</symbol>
<symbol id="icon-star" viewBox="0 0 32 32">
<title>star</title>
<path d="M16 23.027l8.24 4.973-2.187-9.373 7.28-6.307-9.587-0.813-3.747-8.84-3.747 8.84-9.587 0.813 7.28 6.307-2.187 9.373z"></path>
</symbol>
<symbol id="icon-star_border" viewBox="0 0 32 32">
<title>star_border</title>
<path d="M29.333 12.32l-9.587-0.827-3.747-8.827-3.747 8.84-9.587 0.813 7.28 6.307-2.187 9.373 8.24-4.973 8.24 4.973-2.173-9.373 7.267-6.307zM16 20.533l-5.013 3.027 1.333-5.707-4.427-3.84 5.84-0.507 2.267-5.373 2.28 5.387 5.84 0.507-4.427 3.84 1.333 5.707-5.027-3.040z"></path>
</symbol>
<symbol id="icon-star_half" viewBox="0 0 32 32">
<title>star_half</title>
<path d="M29.333 12.32l-9.587-0.827-3.747-8.827-3.747 8.84-9.587 0.813 7.28 6.307-2.187 9.373 8.24-4.973 8.24 4.973-2.173-9.373 7.267-6.307zM16 20.533v-12.4l2.28 5.387 5.84 0.507-4.427 3.84 1.333 5.707-5.027-3.040z"></path>
</symbol>
</defs>
</svg>
